<?xml version="1.0" standalone="no"?>
<!DOCTYPE svg PUBLIC "-//W3C//DTD SVG 20010904//EN"
 "http://www.w3.org/TR/2001/REC-SVG-20010904/DTD/svg10.dtd">
<svg version="1.0" xmlns="http://www.w3.org/2000/svg"
 width="2946.000000pt" height="3629.000000pt" viewBox="0 0 2946.000000 3629.000000"
 preserveAspectRatio="xMidYMid meet">

<g transform="translate(0.000000,3629.000000) scale(0.100000,-0.100000)"
fill="#000000" stroke="none">
<path d="M14040 36279 c-1003 -42 -2062 -204 -3024 -465 -337 -92 -300 -75
-346 -155 l-41 -69 92 -247 c485 -1312 822 -2455 1013 -3428 162 -830 219
-1570 160 -2085 -66 -579 -301 -1316 -654 -2057 l-70 -147 157 -250 c231 -370
500 -784 836 -1291 422 -634 978 -1455 987 -1455 3 0 112 143 242 318 129 174
397 535 594 802 780 1052 1194 1631 1609 2250 1183 1766 1757 3030 1856 4090
15 160 15 862 0 1085 -72 1072 -271 1937 -641 2789 l-71 162 -87 12 c-618 85
-1009 121 -1532 142 -280 11 -793 11 -1080 -1z"/>
<path d="M19533 35458 c-85 -156 -113 -215 -181 -374 -425 -994 -475 -2170
-151 -3576 260 -1131 738 -2394 1597 -4218 190 -405 315 -665 702 -1465 660
-1365 940 -1963 1241 -2654 533 -1218 851 -2108 1008 -2811 269 -1211 334
-2504 201 -3955 -132 -1429 -479 -3053 -984 -4600 -36 -110 -63 -201 -61 -203
6 -6 474 370 675 543 533 456 1072 996 1525 1525 1836 2146 2961 4783 3244
7600 50 494 77 1100 67 1504 l-7 268 -503 747 c-1102 1636 -2897 4315 -3133
4678 -285 437 -594 998 -806 1463 -514 1129 -808 2240 -912 3450 -8 96 -18
192 -21 212 -5 34 -19 46 -192 176 -940 699 -1918 1257 -2985 1701 -120 50
-227 93 -240 96 -20 5 -29 -7 -84 -107z m2437 -1932 c56 -133 92 -165 196
-174 l63 -5 11 -54 c7 -30 9 -57 6 -60 -7 -7 -1119 -261 -1125 -257 -4 4 -39
154 -36 154 8 0 799 180 801 183 1 1 -11 58 -27 127 -16 69 -29 128 -29 132 0
8 70 27 93 25 13 -1 28 -24 47 -71z m-1445 -260 c224 -61 357 -223 380 -463
15 -148 -34 -276 -150 -389 -62 -62 -93 -82 -197 -133 -223 -110 -495 -168
-738 -158 -161 6 -263 34 -360 98 -199 134 -272 442 -152 649 112 194 398 343
781 405 112 19 353 13 436 -9z m1836 -985 c111 -43 183 -133 215 -267 30 -130
-9 -249 -113 -344 -156 -143 -545 -251 -755 -211 -88 18 -140 42 -196 95 -70
66 -105 146 -110 257 -4 78 -2 92 23 147 67 149 267 271 545 333 119 26 311
22 391 -10z m-1546 -381 c38 -88 101 -186 133 -208 42 -29 90 -43 177 -49 l81
-6 20 -72 20 -72 -762 -222 c-420 -122 -769 -224 -777 -227 -10 -3 -22 23 -44
98 -30 103 -30 103 -9 109 523 151 1073 313 1079 319 4 4 -15 87 -44 184 -28
97 -50 179 -48 181 10 9 135 41 140 36 3 -3 18 -35 34 -71z m1731 -562 c42
-83 82 -137 116 -154 17 -9 63 -19 101 -23 l70 -6 18 -52 17 -52 -196 -65
c-745 -245 -904 -297 -908 -293 -2 2 -15 36 -29 76 -17 52 -21 73 -12 76 296
96 763 250 767 252 3 3 -52 183 -77 249 -3 8 67 39 99 43 4 1 20 -23 34 -51z
m-1077 -1163 c183 -43 319 -187 366 -386 71 -302 -116 -543 -555 -718 -495
-197 -851 -146 -1002 145 -191 365 40 703 612 897 215 73 432 96 579 62z
m1626 -76 c181 -67 278 -315 194 -494 -50 -107 -190 -215 -375 -290 -157 -64
-234 -80 -374 -80 -114 0 -130 2 -181 26 -113 53 -187 153 -210 285 -37 211
149 410 490 524 185 62 341 72 456 29z m265 -931 c25 -39 63 -84 84 -100 35
-25 47 -28 121 -28 l83 0 21 -51 c13 -28 21 -52 19 -54 -8 -8 -1060 -466
-1063 -463 -2 2 -10 20 -19 41 -9 20 -22 52 -30 70 l-15 33 375 165 c206 90
374 168 374 173 0 4 -22 59 -50 121 -27 62 -50 116 -50 119 0 7 79 44 95 45 6
0 30 -32 55 -71z m-1381 -435 c62 -62 111 -77 224 -70 l92 5 28 -63 c15 -35
27 -68 27 -72 -1 -6 -1230 -560 -1442 -650 l-29 -12 -35 76 c-19 42 -37 86
-40 98 -5 19 29 36 383 195 636 284 653 292 653 304 0 6 -34 85 -75 176 l-74
164 67 31 67 31 56 -85 c30 -47 75 -105 98 -128z m2068 -725 c74 -27 144 -97
186 -186 29 -60 32 -77 32 -157 0 -123 -27 -181 -133 -284 -163 -159 -439
-281 -637 -281 -99 0 -170 20 -227 63 -139 106 -190 291 -121 438 69 148 264
297 503 384 159 58 286 65 397 23z m-1218 -753 c140 -33 245 -122 317 -270 80
-166 81 -285 3 -444 -112 -227 -500 -487 -854 -572 -108 -26 -261 -26 -344 0
-147 46 -255 156 -322 328 -32 84 -31 214 2 303 74 196 285 390 584 535 242
119 448 159 614 120z m1516 -115 c39 -56 118 -128 150 -136 15 -4 60 -4 100
-1 l73 7 27 -46 c15 -25 23 -50 19 -54 -26 -24 -995 -571 -1003 -566 -11 7
-71 112 -71 125 0 4 160 100 355 211 l354 202 -13 27 c-8 14 -37 66 -65 114
-28 49 -51 92 -51 97 0 8 76 56 91 59 4 1 19 -17 34 -39z m630 -745 c65 -31
129 -100 170 -181 27 -53 30 -68 30 -154 0 -86 -3 -101 -30 -155 -81 -162
-371 -371 -595 -431 -87 -23 -201 -23 -268 0 -104 35 -209 165 -232 287 -21
109 28 234 134 347 115 121 306 241 461 289 97 30 110 32 198 28 59 -2 91 -10
132 -30z m-1470 -250 c201 -52 366 -273 368 -490 1 -102 -28 -191 -94 -290
-121 -180 -417 -400 -674 -499 -323 -124 -571 -72 -718 152 -111 168 -123 316
-41 489 83 175 273 352 533 497 239 134 460 184 626 141z m2218 -871 c133 -45
246 -224 234 -371 -14 -179 -215 -401 -482 -533 -126 -63 -207 -84 -300 -78
-93 6 -160 37 -223 101 -135 138 -149 313 -36 482 94 143 300 304 479 376 127
50 227 58 328 23z m-1093 -695 c156 -36 318 -207 365 -384 38 -148 -5 -307
-129 -472 -65 -86 -235 -246 -344 -323 -387 -274 -692 -297 -907 -69 -160 171
-188 360 -85 574 52 107 120 194 239 307 220 210 484 355 681 377 70 8 110 6
180 -10z m1618 -201 c46 -21 71 -19 155 10 l48 16 34 -39 c19 -22 34 -43 35
-46 0 -4 -195 -166 -432 -359 -238 -194 -440 -359 -449 -367 -15 -12 -22 -7
-63 44 -25 32 -46 61 -46 65 0 4 142 122 315 264 l315 257 -37 46 c-21 25 -59
72 -85 104 -26 32 -48 61 -48 65 0 4 19 22 41 39 l42 32 66 -56 c36 -31 85
-65 109 -75z m675 -586 c64 -28 139 -108 179 -189 29 -60 33 -77 33 -149 0
-73 -4 -88 -38 -156 -91 -185 -383 -409 -607 -464 -87 -22 -198 -15 -264 16
-65 31 -138 106 -173 177 -25 51 -28 69 -28 153 0 89 2 100 35 164 87 175 366
393 582 457 85 25 214 21 281 -9z m-1464 -523 c24 -16 62 -31 85 -34 35 -6
127 8 201 30 16 5 29 -6 64 -55 24 -34 39 -65 35 -70 -32 -28 -1318 -900
-1325 -898 -5 2 -34 39 -64 82 -44 64 -53 82 -43 92 7 7 218 153 468 324 250
171 456 316 458 323 1 7 -44 80 -101 162 l-103 151 61 42 60 41 80 -81 c44
-45 100 -94 124 -109z m2208 -778 c136 -60 235 -256 204 -402 -33 -153 -177
-287 -421 -391 -142 -61 -231 -82 -350 -83 -134 0 -190 18 -265 87 -104 95
-148 242 -111 370 50 172 292 346 596 428 106 28 273 24 347 -9z m-1467 -250
c172 -53 295 -202 337 -406 52 -261 -123 -497 -503 -676 -118 -56 -273 -110
-384 -135 -95 -21 -277 -23 -350 -5 -140 35 -258 129 -320 254 -158 322 -4
612 445 832 135 67 325 131 442 150 111 18 247 12 333 -14z m1737 -770 c58
-124 98 -156 206 -167 l66 -7 17 -49 c9 -27 13 -52 10 -56 -4 -3 -253 -81
-554 -172 -352 -107 -549 -162 -553 -156 -12 19 -42 136 -37 141 3 3 178 58
389 121 211 64 386 118 388 120 2 1 -13 57 -33 123 -20 66 -36 124 -36 130 0
8 70 38 95 40 6 1 25 -30 42 -68z m-1320 -1222 c352 -39 534 -231 521 -553 -3
-89 -8 -110 -36 -170 -18 -39 -49 -89 -68 -113 -143 -175 -523 -303 -899 -303
-359 0 -578 139 -641 407 -47 199 23 387 190 510 122 90 274 152 476 193 179
36 315 45 457 29z m337 -1491 c20 -107 50 -212 74 -258 34 -67 87 -103 190
-128 39 -9 72 -21 72 -27 0 -5 -11 -39 -24 -75 -21 -59 -27 -66 -57 -72 -50
-11 -1519 -81 -1527 -73 -4 4 -9 51 -10 105 l-4 98 89 6 c48 3 279 15 513 26
234 11 453 23 488 26 l63 6 -5 61 c-3 34 -8 119 -12 189 l-6 126 24 5 c12 2
47 5 75 6 47 1 53 -1 57 -21z m-269 -1203 c88 -15 238 -57 262 -73 9 -5 1 -32
-28 -99 -39 -88 -42 -91 -65 -83 -58 22 -233 51 -364 60 -289 19 -505 -24
-607 -122 -74 -71 -98 -212 -54 -313 70 -160 246 -230 629 -251 67 -4 122 -9
122 -11 0 -2 -23 -48 -50 -103 l-50 -100 -46 0 c-72 0 -246 28 -342 56 -336
95 -505 313 -464 597 36 253 230 410 565 457 91 13 388 4 492 -15z"/>
<path d="M20105 33060 c-460 -83 -699 -248 -670 -464 23 -175 157 -275 369
-276 87 0 252 24 386 57 276 67 462 170 513 283 28 61 27 156 -2 232 -27 69
-97 138 -169 163 -75 27 -290 30 -427 5z"/>
<path d="M22140 32154 c-14 -2 -56 -9 -95 -15 -152 -24 -338 -98 -423 -166
-125 -102 -107 -275 38 -348 77 -39 244 -26 437 36 197 63 319 143 343 226 27
89 -21 202 -101 241 -43 20 -149 34 -199 26z"/>
<path d="M21226 29980 c-281 -45 -657 -219 -760 -354 -92 -121 -88 -266 10
-375 107 -119 277 -131 562 -40 238 77 424 174 533 279 57 55 70 74 84 123 41
143 -45 308 -185 356 -48 16 -173 22 -244 11z"/>
<path d="M22830 29954 c-139 -29 -334 -113 -427 -183 -26 -20 -63 -59 -81 -86
-31 -46 -34 -55 -30 -111 5 -85 40 -137 115 -171 49 -23 65 -25 137 -21 146
10 414 116 539 214 97 75 120 159 73 260 -48 104 -153 136 -326 98z"/>
<path d="M23748 27850 c-228 -78 -443 -229 -478 -336 -18 -53 -8 -132 21 -176
73 -111 202 -124 399 -41 205 87 375 206 421 295 41 81 14 189 -65 252 -35 29
-45 31 -124 34 -75 2 -99 -2 -174 -28z"/>
<path d="M22610 27055 c-98 -22 -172 -51 -310 -121 -247 -125 -411 -258 -473
-383 -58 -118 -37 -240 55 -328 59 -57 121 -78 223 -77 113 1 204 29 377 117
245 124 461 293 514 402 30 62 26 175 -8 240 -32 61 -90 119 -142 140 -55 23
-159 27 -236 10z"/>
<path d="M24740 26264 c-192 -51 -467 -247 -529 -377 -44 -92 -11 -204 76
-258 52 -33 143 -36 223 -9 188 63 450 253 509 368 52 101 0 230 -111 276 -46
19 -96 19 -168 0z"/>
<path d="M23320 25953 c-56 -9 -184 -57 -267 -99 -241 -123 -467 -312 -532
-446 -45 -91 -47 -170 -7 -251 66 -136 209 -192 377 -148 247 64 676 367 765
541 95 185 -55 415 -265 409 -25 -1 -57 -4 -71 -6z"/>
<path d="M25557 25139 c-163 -32 -470 -256 -540 -396 -39 -76 -43 -121 -18
-179 41 -91 97 -126 199 -126 57 0 75 5 166 50 226 114 456 338 456 447 0 44
-23 98 -57 136 -59 66 -117 85 -206 68z"/>
<path d="M24480 24394 c-174 -33 -436 -199 -631 -401 -163 -168 -218 -305
-173 -435 19 -58 73 -120 131 -155 66 -38 184 -44 276 -14 171 57 501 310 633
484 128 169 137 291 30 422 -60 73 -175 116 -266 99z"/>
<path d="M26685 23651 c-179 -65 -435 -263 -494 -384 -48 -100 -34 -187 41
-251 81 -70 174 -68 316 3 247 124 468 356 447 468 -28 149 -159 219 -310 164z"/>
<path d="M27410 22355 c-185 -41 -423 -165 -504 -262 -78 -93 -71 -202 17
-280 94 -82 244 -66 493 52 281 133 367 246 296 390 -19 40 -51 74 -85 91 -41
22 -142 26 -217 9z"/>
<path d="M25880 22044 c-154 -33 -421 -147 -552 -235 -201 -137 -266 -290
-187 -448 84 -169 264 -204 553 -107 323 108 575 266 642 402 23 48 26 63 22
122 -9 122 -85 232 -183 265 -60 21 -202 21 -295 1z"/>
<path d="M26315 20029 c-344 -51 -556 -148 -625 -285 -36 -72 -34 -169 3 -246
71 -146 223 -200 492 -177 316 27 590 114 701 224 61 61 79 114 72 210 -11
129 -81 218 -203 261 -58 20 -338 29 -440 13z"/>
<path d="M9750 35413 c-8 -3 -132 -52 -275 -108 -2590 -1027 -4816 -2829
-6390 -5175 -83 -124 -164 -246 -179 -272 l-27 -46 36 -214 c115 -674 284
-1355 495 -1988 107 -324 173 -498 465 -1230 449 -1124 823 -2023 1525 -3665
632 -1477 809 -1914 1030 -2541 475 -1348 671 -2538 751 -4552 15 -374 6
-1134 -15 -1407 -85 -1057 -296 -1931 -671 -2774 -40 -91 -75 -171 -77 -178
-8 -28 776 -555 1179 -791 2175 -1279 4640 -1933 7158 -1899 436 6 529 11
1029 52 165 14 307 25 317 25 27 0 312 436 517 790 1008 1750 1394 3549 1127
5265 -102 656 -282 1246 -623 2040 -519 1211 -1300 2617 -2412 4345 -478 742
-941 1435 -2015 3015 -612 900 -1268 1882 -1555 2325 -1367 2115 -2053 3507
-2240 4544 -226 1248 47 2711 796 4265 46 96 84 176 84 178 0 4 -11 3 -30 -4z
m-2751 -4137 c33 -79 76 -144 113 -166 18 -11 61 -22 99 -26 l66 -6 13 -55 c6
-30 10 -56 8 -57 -9 -7 -1111 -296 -1115 -293 -6 7 -45 148 -41 151 2 1 180
49 396 106 267 71 392 109 392 118 0 7 -14 65 -31 128 -17 64 -29 118 -26 120
4 4 82 30 98 33 3 1 15 -23 28 -53z m-1841 -865 c232 -48 380 -173 448 -376
32 -96 43 -241 25 -328 -17 -80 -73 -187 -133 -252 -58 -64 -183 -150 -280
-194 -149 -66 -369 -125 -573 -152 -127 -16 -358 -7 -458 20 -283 75 -443 285
-441 581 1 117 20 186 75 271 45 70 167 181 256 234 148 87 385 163 619 199
136 21 350 20 462 -3z m2263 -367 c120 -27 204 -102 248 -220 34 -90 37 -160
11 -245 -20 -68 -29 -80 -99 -150 -91 -89 -196 -147 -371 -204 -329 -106 -561
-50 -656 160 -39 83 -45 197 -15 275 36 97 147 202 287 273 75 38 249 96 334
112 102 18 178 18 261 -1z m307 -963 c71 -109 96 -126 197 -128 l80 -2 23 -52
c12 -28 21 -52 20 -53 -23 -15 -1062 -436 -1070 -434 -10 4 -58 112 -58 132 0
6 169 80 375 165 206 85 375 158 375 162 0 3 -22 60 -49 125 l-49 119 46 22
c26 12 50 22 53 22 3 1 29 -35 57 -78z m-2184 -257 c64 -134 125 -217 180
-243 49 -24 136 -41 212 -41 l51 0 25 -82 c14 -46 25 -84 24 -85 -5 -5 -1769
-533 -1772 -531 -6 7 -67 228 -63 231 2 2 285 88 629 191 344 103 626 188 627
189 1 1 -27 96 -62 210 -42 140 -59 210 -52 213 37 13 134 42 144 43 6 1 32
-42 57 -95z m2762 -895 c32 -6 81 -22 107 -37 146 -79 225 -290 167 -445 -44
-116 -151 -217 -330 -311 -160 -83 -272 -118 -402 -124 -188 -8 -288 45 -363
192 -38 74 -40 84 -40 165 0 73 4 95 27 144 69 146 274 296 519 378 135 45
220 55 315 38z m359 -902 c45 -64 95 -117 126 -133 32 -16 109 -18 157 -5 32
10 33 9 58 -41 15 -29 22 -54 17 -59 -11 -11 -1003 -539 -1012 -539 -4 0 -23
30 -43 68 l-37 68 364 193 364 194 -65 123 -65 123 48 25 c26 14 50 25 53 25
3 0 18 -18 35 -42z m-2333 -146 c42 -11 100 -32 129 -47 80 -40 178 -144 222
-234 185 -377 28 -698 -456 -934 -254 -124 -467 -185 -672 -193 -294 -11 -483
87 -593 308 -125 252 -85 475 123 684 187 189 543 361 870 420 111 21 288 18
377 -4z m3058 -972 c118 -19 206 -86 262 -201 100 -203 14 -399 -252 -577
-183 -122 -331 -176 -485 -176 -87 0 -107 3 -157 27 -69 32 -130 93 -171 173
-29 55 -32 68 -32 155 0 86 3 101 30 155 96 192 425 408 680 445 27 4 52 8 55
9 3 0 34 -4 70 -10z m-2561 -506 c71 -104 141 -177 196 -205 43 -23 141 -29
232 -15 l52 8 40 -79 40 -79 -833 -405 -833 -405 -49 105 c-27 58 -50 108 -51
111 -2 3 262 134 587 291 324 157 589 288 590 292 0 4 -42 94 -93 201 l-94
193 76 36 c42 20 77 37 78 37 1 1 29 -38 62 -86z m3087 -474 c31 -18 45 -21
102 -16 37 3 76 9 88 12 16 5 26 -2 49 -36 18 -28 25 -47 19 -56 -9 -13 -965
-626 -969 -621 -27 36 -75 123 -72 132 3 6 156 107 341 225 185 117 336 217
336 222 0 4 -28 52 -63 106 -35 54 -67 104 -71 110 -4 8 10 23 41 43 l47 30
58 -64 c32 -36 74 -74 94 -87z m566 -612 c150 -74 242 -278 193 -428 -10 -30
-29 -74 -44 -99 -39 -69 -165 -189 -277 -263 -171 -114 -296 -160 -434 -161
-77 -1 -92 2 -152 32 -77 38 -134 97 -175 181 -24 48 -28 68 -28 142 0 79 3
91 39 164 85 173 342 369 576 442 105 32 223 28 302 -10z m-2489 -722 c122
-32 220 -98 294 -199 137 -186 172 -387 98 -569 -76 -186 -285 -386 -577 -553
-476 -272 -860 -265 -1072 17 -127 168 -160 347 -100 527 45 132 157 278 308
402 153 124 393 262 566 325 168 61 364 81 483 50z m3272 -390 c62 -30 143
-113 174 -178 52 -108 51 -211 -4 -322 -77 -157 -323 -358 -534 -436 -73 -27
-100 -32 -181 -33 -84 0 -101 3 -151 27 -114 55 -199 179 -207 303 -11 172
109 350 344 510 123 85 209 125 339 158 49 12 167 -3 220 -29z m444 -844 c36
-25 54 -31 96 -31 29 0 72 7 95 15 23 8 46 15 50 15 3 0 21 -20 39 -45 l32
-44 -63 -49 c-666 -523 -845 -662 -853 -661 -10 0 -83 91 -90 112 -2 7 140
124 316 261 175 137 319 253 319 258 0 5 -36 55 -81 111 l-80 102 43 37 43 37
45 -43 c25 -24 65 -58 89 -75z m-2954 9 c165 -23 323 -145 412 -316 92 -176
96 -324 12 -503 -131 -283 -593 -632 -967 -733 -112 -30 -273 -30 -367 -1
-163 51 -307 199 -371 381 -28 81 -32 206 -9 296 34 130 138 289 274 419 222
212 533 392 762 441 128 27 160 29 254 16z m3631 -595 c65 -32 148 -119 182
-192 80 -175 6 -369 -214 -554 -181 -153 -336 -228 -484 -236 -109 -6 -176 17
-255 88 -130 119 -158 287 -75 450 35 67 132 179 220 252 241 199 467 268 626
192z m-2226 -1136 c141 -32 301 -165 377 -314 54 -106 67 -165 61 -284 -10
-189 -105 -359 -322 -577 -333 -333 -689 -504 -948 -455 -149 29 -306 146
-391 291 -55 95 -72 158 -71 270 1 79 6 110 31 183 123 352 596 777 976 877
80 21 216 25 287 9z m3087 -30 c74 -35 123 -89 167 -179 28 -58 31 -75 31
-155 0 -82 -3 -96 -34 -159 -78 -159 -342 -356 -571 -427 -95 -29 -213 -32
-288 -6 -74 26 -153 102 -194 185 -30 60 -33 75 -33 157 0 82 3 97 32 156 76
154 299 335 510 415 163 62 272 66 380 13z m405 -951 c45 -45 65 -58 90 -60
47 -2 48 -2 104 6 l52 6 27 -46 c15 -25 23 -50 19 -54 -13 -13 -976 -552 -994
-557 -17 -4 -93 117 -82 129 4 4 165 95 357 203 193 108 351 198 352 199 1 1
-27 54 -62 116 -36 63 -65 118 -65 122 0 4 21 19 48 32 l47 25 25 -32 c13 -18
50 -58 82 -89z m-2683 -441 c63 -83 165 -175 217 -199 41 -17 61 -20 133 -15
47 3 104 12 126 20 l41 15 41 -67 c23 -37 43 -72 45 -78 2 -7 -350 -230 -781
-497 l-785 -484 -63 102 c-57 92 -61 102 -45 114 12 10 527 330 742 462 8 5
93 57 188 115 94 59 172 108 172 110 0 3 -51 87 -113 188 l-113 183 65 41 c36
23 71 42 77 42 6 1 30 -23 53 -52z m3176 -272 c105 -29 196 -131 230 -259 56
-208 -64 -384 -363 -531 -357 -175 -637 -143 -745 88 -55 115 -55 212 -1 318
72 142 283 289 524 363 144 45 245 51 355 21z m-2259 -1060 c152 -39 275 -139
345 -280 192 -392 25 -713 -503 -959 -125 -59 -301 -119 -430 -148 -148 -32
-342 -32 -448 0 -100 32 -171 73 -236 140 -94 94 -173 287 -174 419 0 148 84
312 227 443 201 185 591 356 908 399 88 12 233 5 311 -14z m2913 -832 c64
-131 105 -163 210 -163 l60 0 18 -57 c15 -49 16 -57 3 -62 -8 -3 -258 -80
-555 -171 l-540 -167 -24 73 c-14 41 -23 76 -20 78 3 3 176 58 385 122 208 63
383 119 387 124 5 4 -8 63 -28 129 -21 67 -34 125 -30 129 9 9 66 30 85 31 10
1 29 -25 49 -66z m226 -806 c29 -73 68 -132 100 -153 13 -8 56 -21 95 -27 69
-10 70 -11 79 -46 21 -81 74 -60 -534 -207 -302 -73 -557 -133 -566 -133 -11
-1 -20 19 -32 71 -10 39 -14 74 -10 78 4 3 184 48 398 99 215 52 391 94 392
95 1 0 -12 55 -28 121 -16 66 -29 125 -29 132 0 14 54 32 88 30 18 -2 28 -14
47 -60z m-2542 -631 c262 -51 417 -188 478 -424 23 -90 25 -233 4 -311 -72
-272 -359 -455 -850 -542 -104 -18 -165 -23 -305 -23 -156 1 -186 4 -273 27
-222 59 -357 179 -423 373 -32 96 -43 236 -24 315 63 274 339 470 790 563 228
47 434 54 603 22z m2755 -215 c153 -52 227 -139 252 -295 12 -78 2 -155 -30
-222 -30 -61 -118 -139 -202 -179 -154 -74 -415 -117 -575 -95 -251 33 -375
158 -377 380 -1 74 3 93 27 142 67 136 247 239 487 278 41 6 82 13 90 15 8 2
71 3 140 1 95 -3 140 -9 188 -25z m143 -1064 c36 -142 75 -188 183 -212 l51
-11 9 -58 c4 -31 7 -58 5 -60 -6 -4 -1153 -116 -1156 -112 -5 4 -16 156 -12
156 2 0 182 18 399 40 217 22 400 40 405 40 8 0 7 37 -1 118 -19 174 -22 160
34 165 26 2 51 3 57 2 5 -1 17 -31 26 -68z m-2576 -414 c9 -64 52 -197 80
-254 38 -74 120 -125 242 -150 70 -14 65 -7 77 -131 l6 -57 -42 -6 c-24 -3
-423 -39 -888 -80 -465 -41 -859 -77 -877 -79 -39 -6 -40 -5 -48 134 l-7 105
653 59 c360 32 655 59 655 60 1 0 -7 97 -18 215 -10 117 -17 215 -15 218 6 5
160 20 168 16 4 -1 10 -24 14 -50z m2558 -412 c104 -27 189 -74 242 -133 121
-135 108 -382 -28 -505 -188 -169 -709 -190 -935 -38 -107 72 -159 187 -150
329 13 198 171 327 449 366 107 15 333 5 422 -19z m-2748 -946 c355 -59 570
-208 639 -444 25 -85 30 -195 12 -291 -65 -362 -403 -537 -1000 -517 -289 10
-493 62 -651 168 -169 113 -246 261 -246 474 0 164 38 267 136 374 136 147
331 222 660 255 78 8 361 -4 450 -19z m2859 -127 c3 -18 8 -55 11 -83 8 -60
34 -123 63 -148 11 -10 47 -29 79 -42 l58 -24 -3 -53 c-2 -29 -5 -54 -8 -57
-5 -6 -954 17 -1072 25 l-83 6 3 77 3 76 90 0 c50 0 235 -4 413 -8 l322 -9 0
120 c0 66 3 127 6 136 5 12 20 16 60 16 52 0 53 -1 58 -32z"/>
<path d="M4770 30175 c-504 -73 -797 -240 -817 -466 -8 -86 24 -183 83 -248
95 -106 236 -144 456 -123 347 33 707 150 843 274 75 68 98 126 93 237 -7 183
-98 287 -284 326 -83 18 -256 18 -374 0z"/>
<path d="M7175 29884 c-86 -19 -240 -76 -319 -117 -73 -39 -158 -115 -180
-161 -53 -111 22 -248 151 -277 135 -30 475 77 639 201 98 74 120 177 58 277
-41 66 -87 87 -194 90 -48 1 -115 -4 -155 -13z"/>
<path d="M8111 27759 c-87 -22 -273 -109 -357 -167 -164 -111 -213 -241 -134
-351 65 -89 179 -108 338 -55 75 25 264 118 328 162 74 50 138 111 160 153 25
50 15 138 -22 192 -59 85 -159 107 -313 66z"/>
<path d="M6110 26665 c-8 -2 -49 -9 -90 -15 -191 -31 -568 -190 -715 -303 -84
-64 -159 -153 -180 -215 -49 -146 15 -314 150 -388 118 -66 253 -67 466 -3
369 110 688 295 774 451 26 46 30 63 30 133 0 69 -4 89 -31 146 -51 108 -121
164 -232 188 -48 10 -135 13 -172 6z"/>
<path d="M9205 25736 c-87 -28 -157 -63 -264 -133 -208 -135 -284 -259 -232
-379 41 -91 97 -127 201 -127 170 1 525 214 617 371 52 88 13 215 -82 269 -54
31 -146 30 -240 -1z"/>
<path d="M10218 24176 c-37 -13 -100 -43 -140 -66 -215 -124 -346 -256 -372
-377 -16 -72 37 -164 117 -205 63 -32 160 -22 260 26 246 118 467 328 467 443
0 68 -63 163 -127 189 -48 21 -130 17 -205 -10z"/>
<path d="M7720 23361 c-245 -63 -636 -301 -781 -475 -84 -103 -127 -216 -114
-299 24 -148 134 -260 283 -287 105 -19 225 8 397 89 309 146 601 377 676 534
69 147 1 335 -151 421 -48 27 -65 31 -145 33 -63 2 -112 -3 -165 -16z"/>
<path d="M11035 23070 c-176 -56 -432 -257 -502 -393 -51 -99 -27 -204 60
-264 36 -25 49 -28 122 -28 73 0 88 3 156 37 160 79 372 255 434 361 79 136
-23 310 -181 306 -16 0 -56 -9 -89 -19z"/>
<path d="M8614 22140 c-151 -27 -355 -131 -573 -292 -182 -135 -314 -287 -355
-411 -65 -194 71 -397 282 -422 155 -18 402 95 697 318 162 123 319 303 345
395 40 146 -37 315 -172 381 -71 34 -146 44 -224 31z"/>
<path d="M12202 21650 c-162 -33 -456 -260 -530 -409 -43 -87 -44 -150 -2
-212 65 -99 180 -120 312 -57 148 71 352 240 426 353 63 96 66 158 9 241 -49
73 -125 102 -215 84z"/>
<path d="M10000 20423 c-169 -28 -412 -185 -641 -413 -194 -194 -269 -325
-269 -473 0 -207 196 -352 414 -307 150 31 372 184 601 414 172 173 243 276
272 390 14 58 15 75 3 119 -46 184 -208 299 -380 270z"/>
<path d="M12969 20466 c-166 -58 -388 -217 -459 -328 -64 -99 -63 -180 3 -255
90 -102 228 -95 429 23 233 137 368 277 368 384 0 41 -28 108 -59 144 -53 60
-167 73 -282 32z"/>
<path d="M13905 18791 c-182 -50 -384 -158 -467 -249 -53 -58 -68 -94 -68
-155 0 -45 6 -63 33 -103 79 -118 218 -123 463 -16 180 78 339 193 371 269 32
77 -5 192 -79 240 -53 35 -155 41 -253 14z"/>
<path d="M11620 17663 c-166 -25 -453 -127 -610 -215 -234 -132 -340 -255
-348 -403 -5 -100 23 -173 95 -243 75 -74 125 -94 248 -100 115 -5 236 20 405
81 288 106 480 215 600 343 101 109 116 217 48 362 -57 121 -171 183 -332 181
-44 -1 -92 -3 -106 -6z"/>
<path d="M12050 15375 c-400 -65 -644 -179 -728 -339 -23 -44 -27 -63 -27
-137 0 -79 3 -92 35 -155 40 -78 100 -130 190 -166 112 -43 363 -36 625 19
262 54 442 131 540 228 70 69 88 115 87 216 -2 159 -88 278 -237 326 -69 22
-367 27 -485 8z"/>
<path d="M14905 15259 c-195 -27 -358 -88 -415 -157 -106 -128 -31 -300 145
-333 143 -27 437 22 585 96 107 54 147 116 135 210 -10 84 -61 145 -145 174
-47 17 -218 22 -305 10z"/>
<path d="M15005 13369 c-188 -13 -305 -60 -356 -143 -22 -35 -26 -143 -8 -179
23 -45 85 -98 139 -119 46 -18 82 -22 225 -26 309 -8 485 43 531 155 29 68 11
168 -39 221 -69 75 -250 108 -492 91z"/>
<path d="M12070 12329 c-103 -12 -223 -44 -295 -78 -134 -64 -199 -159 -200
-291 0 -108 25 -171 94 -241 68 -68 143 -104 270 -133 86 -18 127 -21 381 -21
273 0 290 2 395 27 194 46 281 99 326 201 20 43 24 69 24 147 0 84 -3 102 -28
152 -65 132 -225 208 -499 237 -113 13 -359 12 -468 0z"/>
<path d="M25817 29338 l2 -1243 277 -415 c771 -1156 2212 -3300 2226 -3315 12
-12 9 15 -38 305 -303 1867 -1011 3699 -2045 5298 -113 174 -362 537 -406 590
-18 23 -19 3 -16 -1220z"/>
<path d="M1580 27168 c-391 -1079 -639 -2173 -761 -3363 -20 -193 -22 -266
-22 -910 0 -925 25 -1591 88 -2354 15 -180 68 -514 130 -826 306 -1532 886
-3035 1695 -4390 137 -230 319 -515 328 -515 16 0 228 407 331 635 723 1604
860 3456 391 5299 -107 422 -182 652 -443 1371 -871 2399 -1320 3817 -1597
5045 -28 124 -51 228 -53 233 -1 4 -40 -97 -87 -225z"/>
<path d="M22840 19721 c-610 -756 -840 -1044 -1008 -1261 -931 -1197 -1491
-2092 -1882 -3010 -477 -1119 -664 -2270 -534 -3285 89 -698 345 -1391 726
-1963 83 -126 258 -362 268 -362 4 0 146 70 316 155 331 165 589 306 909 496
l200 118 39 103 c466 1250 750 2173 996 3236 483 2085 601 4008 344 5631 -19
123 -48 285 -63 359 l-27 136 -284 -353z"/>
<path d="M5971 19265 c-318 -690 -425 -1217 -408 -2005 22 -993 258 -2148 728
-3567 50 -150 94 -273 98 -273 8 0 20 72 56 334 69 514 96 1105 76 1666 -48
1366 -143 2306 -317 3119 -33 159 -142 594 -182 731 l-19 65 -32 -70z"/>
<path d="M11510 6660 l0 -250 915 0 915 0 0 -2525 0 -2525 280 0 280 0 0 2525
0 2525 920 0 920 0 0 250 0 250 -2115 0 -2115 0 0 -250z"/>
<path d="M1295 4139 c-688 -1519 -1252 -2765 -1253 -2770 -2 -6 120 -8 294 -7
l297 3 323 730 323 730 1546 0 1546 0 327 -732 327 -732 302 -1 302 0 -40 88
c-22 48 -586 1293 -1252 2767 l-1213 2680 -290 3 -290 2 -1249 -2761z m2194
671 l658 -1475 -658 -3 c-361 -1 -956 -1 -1322 0 l-664 3 656 1488 c434 985
659 1484 664 1475 5 -7 305 -677 666 -1488z"/>
<path d="M6540 4130 l0 -2770 280 0 280 0 0 895 0 895 823 0 c453 0 884 3 958
6 l134 6 598 -901 599 -901 319 0 c240 0 318 3 313 12 -4 6 -300 430 -659 942
-358 512 -654 936 -658 943 -5 7 15 19 60 34 107 35 267 105 364 160 134 76
242 160 364 283 329 333 487 763 487 1326 -1 268 -29 460 -98 668 -194 579
-681 968 -1389 1111 -274 55 -246 54 -1557 58 l-1218 4 0 -2771z m2425 2261
c740 -97 1157 -429 1282 -1021 15 -68 18 -133 18 -330 0 -219 -2 -256 -23
-347 -32 -142 -56 -213 -109 -322 -156 -317 -462 -548 -866 -652 -246 -63
-215 -62 -1234 -66 l-933 -4 0 1381 0 1382 888 -5 c595 -3 917 -8 977 -16z"/>
<path d="M22280 4130 l0 -2770 280 0 280 0 0 895 0 895 823 0 c453 0 884 3
958 6 l134 6 598 -901 599 -901 319 0 c240 0 318 3 313 12 -4 6 -300 430 -659
942 -358 512 -654 936 -658 943 -5 7 15 19 60 34 107 35 267 105 364 160 134
76 242 160 364 283 329 333 487 763 487 1326 -1 268 -29 460 -98 668 -194 579
-681 968 -1389 1111 -274 55 -246 54 -1557 58 l-1218 4 0 -2771z m2425 2261
c740 -97 1157 -429 1282 -1021 15 -68 18 -133 18 -330 0 -219 -2 -256 -23
-347 -32 -142 -56 -213 -109 -322 -156 -317 -462 -548 -866 -652 -246 -63
-215 -62 -1234 -66 l-933 -4 0 1381 0 1382 888 -5 c595 -3 917 -8 977 -16z"/>
<path d="M28030 4130 l0 -2770 280 0 280 0 0 2770 0 2770 -280 0 -280 0 0
-2770z"/>
<path d="M18820 6814 c-19 -2 -78 -9 -130 -14 -416 -45 -848 -221 -1178 -477
-207 -162 -384 -343 -552 -568 -281 -375 -464 -802 -539 -1255 -60 -362 -56
-773 9 -1110 102 -523 362 -1021 745 -1428 41 -44 75 -82 75 -85 0 -2 -67
-112 -148 -243 -323 -522 -364 -598 -417 -779 -31 -105 -38 -254 -16 -345 34
-141 142 -275 258 -321 46 -18 78 -23 158 -23 93 -1 105 1 169 32 122 57 238
202 276 345 10 37 10 54 1 74 -13 28 -23 28 -131 -2 -70 -20 -173 -12 -232 19
-93 46 -128 201 -78 346 48 142 176 372 323 580 43 61 84 113 91 116 7 3 69
-33 138 -79 418 -279 846 -406 1433 -424 435 -13 770 56 1131 233 445 218 873
615 1026 951 40 88 84 217 93 270 19 118 -78 188 -154 112 -17 -17 -45 -52
-63 -77 -73 -108 -322 -373 -458 -487 -240 -200 -487 -303 -865 -357 -136 -19
-533 -17 -670 5 -378 59 -695 184 -1062 420 -51 32 -93 64 -93 69 0 16 525
801 775 1157 527 753 1031 1424 1437 1913 384 462 568 653 763 793 91 65 108
89 85 125 -8 12 -42 15 -202 16 -112 0 -220 5 -257 13 -62 12 -169 59 -496
216 -409 197 -663 264 -1020 270 -104 2 -206 1 -225 -1z m195 -388 c200 -36
367 -99 505 -191 184 -123 280 -319 250 -513 -36 -229 -149 -436 -540 -987
-555 -781 -821 -1165 -1355 -1954 l-179 -264 -79 84 c-306 327 -553 796 -647
1227 -77 352 -62 774 39 1158 78 296 235 604 428 844 34 41 110 122 170 180
250 241 524 377 863 426 122 17 421 12 545 -10z"/>
</g>
</svg>
